HIERARCHY
ROOT Hips
{
  OFFSET 40.9192 92.6879 18.85
  CHANNELS 6 Xposition Yposition Zposition Zrotation Xrotation Yrotation
  JOINT LeftUpLeg
  {
    OFFSET 8.64259 1.95398 -2.38835
    CHANNELS 3 Zrotation Xrotation Yrotation
    JOINT LeftLeg
    {
      OFFSET 43.7702 0 0
      CHANNELS 3 Zrotation Xrotation Yrotation
      JOINT LeftFoot
      {
        OFFSET 40.6238 0 0
        CHANNELS 3 Zrotation Xrotation Yrotation
        JOINT LeftToeBase
        {
          OFFSET 12.7242 0 0
          CHANNELS 3 Zrotation Xrotation Yrotation
          End Site
          {
            OFFSET 0 0 0
          }
        }
      }
    }
  }
  JOINT RightUpLeg
  {
    OFFSET -8.2249 1.95398 -2.59336
    CHANNELS 3 Zrotation Xrotation Yrotation
    JOINT RightLeg
    {
      OFFSET 43.5653 0 0
      CHANNELS 3 Zrotation Xrotation Yrotation
      JOINT RightFoot
      {
        OFFSET 40.6238 0 0
        CHANNELS 3 Zrotation Xrotation Yrotation
        JOINT RightToeBase
        {
          OFFSET 12.7242 0 0
          CHANNELS 3 Zrotation Xrotation Yrotation
          End Site
          {
            OFFSET 0 0 0
          }
        }
      }
    }
  }
  JOINT Spine
  {
    OFFSET 0.165834 0.87714 6.61349
    CHANNELS 3 Zrotation Xrotation Yrotation
    JOINT Spine1
    {
      OFFSET 7.38963 1.71661e-005 0
      CHANNELS 3 Zrotation Xrotation Yrotation
      JOINT Spine2
      {
        OFFSET 11.9445 1.14441e-005 0
        CHANNELS 3 Zrotation Xrotation Yrotation
        JOINT Spine3
        {
          OFFSET 14.7254 4.19617e-005 0
          CHANNELS 3 Zrotation Xrotation Yrotation
          JOINT Spine4
          {
            OFFSET 10.9679 0 0
            CHANNELS 3 Zrotation Xrotation Yrotation
            JOINT RightShoulder
            {
              OFFSET 2.46616 -1.6653 3.69651
              CHANNELS 3 Zrotation Xrotation Yrotation
              JOINT RightArm
              {
                OFFSET 13.0012 0 0
                CHANNELS 3 Zrotation Xrotation Yrotation
                JOINT RightForeArm
                {
                  OFFSET 28.7848 1.52588e-005 0
                  CHANNELS 3 Zrotation Xrotation Yrotation
                  JOINT RightHand
                  {
                    OFFSET 26.5688 1.52588e-005 0
                    CHANNELS 3 Zrotation Xrotation Yrotation
                    End Site
                    {
                      OFFSET 0 0 0
                    }
                  }
                }
              }
            }
            JOINT LeftShoulder
            {
              OFFSET 2.38034 -1.29275 -3.7523
              CHANNELS 3 Zrotation Xrotation Yrotation
              JOINT LeftArm
              {
                OFFSET 16.3182 6.10351e-005 0
                CHANNELS 3 Zrotation Xrotation Yrotation
                JOINT LeftForeArm
                {
                  OFFSET 27.0901 0 0
                  CHANNELS 3 Zrotation Xrotation Yrotation
                  JOINT LeftHand
                  {
                    OFFSET 24.5451 1.52588e-005 0
                    CHANNELS 3 Zrotation Xrotation Yrotation
                    End Site
                    {
                      OFFSET 0 0 0
                    }
                  }
                }
              }
            }
            JOINT Neck
            {
              OFFSET 5.0226 -0.0266342 0
              CHANNELS 3 Zrotation Xrotation Yrotation
              JOINT Head
              {
                OFFSET 6.69363 2.86102e-005 0
                CHANNELS 3 Zrotation Xrotation Yrotation
                End Site
                {
                  OFFSET 0 0 0
                }
              }
            }
          }
        }
      }
    }
  }
}
MOTION
Frames:	7
Frame Time:	0.0416667
-55.5062 97.4237 30.7454 -127.035 -86.3537 -127.33 -169.807 2.6595 93.2647 -8.92354 4.31567 -2.85652 61.2149 1.3938 3.48579 28.2638 -0.291688 -1.09251 172.576 2.18802 87.9836 -11.6597 -8.40764 -0.626372 64.749 -2.55743 -1.383 28.6086 0.246472 -3.8702 0.105367 7.28311 -90.0526 12.3077 0.184484 -0.125804 0.636799 0.178769 -0.133808 -21.8985 0.213766 -0.0645393 -1.88581 0.213767 -0.0645417 92.7155 -47.2143 -97.1752 29.9895 -8.34877 0.890186 -4.56618 -25.0053 -39.6934 -5.84763 -0.955205 7.05383 -97.7325 -49.6192 67.171 -22.6739 17.7773 -1.29743 1.73203 14.2534 -30.1576 12.5631 1.27909 6.05045 6.62306 2.55337 4.49587 -8.57702 1.62085 4.12987 
-55.4783 97.4676 30.7874 -127.105 -86.276 -127.444 -169.699 2.70938 93.2869 -9.07602 3.4927 -2.97533 60.8513 0.923152 3.24376 28.8354 0.284952 -2.45332 172.31 2.63302 87.8878 -12.4656 -7.52765 -0.309303 64.4559 -2.42174 -1.30605 29.4809 0.191852 -2.70932 0.11527 7.29688 -90.0633 12.2802 0.199109 -0.148665 0.609296 0.192378 -0.157293 -21.926 0.23458 -0.0819417 -1.9133 0.234585 -0.0819554 92.7673 -46.853 -97.1624 30.1757 -8.30747 0.814577 -3.99625 -25.4943 -39.0364 -6.89075 -1.03957 7.01759 -97.9249 -49.6216 66.8902 -22.8521 17.6135 -1.37871 1.82278 14.2685 -30.0332 12.0696 1.19722 5.76865 7.43418 3.836 3.8005 -6.9941 3.03125 4.1132 
-55.4512 97.4368 30.8434 -125.969 -86.2254 -126.36 -169.742 2.88454 93.2168 -9.4795 3.39438 -2.96596 60.9834 0.898802 3.37088 28.8447 0.323974 -2.78685 172.277 2.58221 87.8081 -12.3983 -7.78818 -0.338934 64.804 -2.57533 -1.39385 28.9983 0.182708 -2.75801 0.13046 7.2909 -90.0459 12.2922 0.237546 -0.118478 0.621312 0.232107 -0.128829 -21.914 0.262169 -0.0416042 -1.90136 0.262174 -0.0416114 92.7411 -46.9363 -97.1881 30.1995 -8.29443 0.936421 -4.19287 -25.2703 -39.1569 -6.81854 -1.03086 6.98845 -97.8415 -49.4038 66.9383 -22.7614 17.8166 -1.61117 1.57939 14.2282 -29.775 12.2582 1.20229 5.67367 8.06238 3.51769 3.85784 -7.1285 2.68879 3.64221 
-55.4142 97.437 30.899 -125.421 -86.2212 -125.763 -169.603 2.70997 93.2861 -9.23736 3.03958 -3.06551 61.1538 1.05401 2.55392 28.8022 0.196108 -1.80239 172.254 2.44496 87.8125 -12.123 -7.82975 -0.313176 64.8699 -2.61381 -1.4172 28.7009 0.174491 -2.74368 0.130777 7.27889 -90.0562 12.3163 0.233282 -0.138456 0.645332 0.226969 -0.148589 -21.89 0.264107 -0.0619408 -1.87732 0.264105 -0.0619465 92.8226 -46.9619 -97.0528 30.0611 -8.40783 0.876713 -3.94822 -25.1697 -39.1145 -7.11792 -1.04995 6.94374 -97.8689 -49.4709 66.9209 -22.4897 18.0594 -1.66013 1.32083 13.975 -29.78 12.4618 1.21981 5.67096 8.12593 3.53265 3.92781 -6.98063 2.69653 3.43903 
-55.4056 97.4088 30.9554 -125.236 -86.2392 -125.554 -169.508 2.98742 93.3454 -9.7668 3.56549 -3.18125 61.5753 1.31721 3.33603 28.1679 -0.262582 -2.05786 172.198 2.64392 87.7885 -12.5919 -8.11241 -0.265373 64.9352 -2.63873 -1.4286 29.1453 0.228248 -3.43024 0.12449 7.25949 -90.0621 12.3551 0.217957 -0.148645 0.684112 0.211201 -0.158103 -21.8512 0.252556 -0.0762748 -1.83852 0.252553 -0.0762725 92.8734 -46.9483 -96.9747 30.1811 -8.40196 0.969651 -4.2058 -25.2393 -39.2682 -6.82962 -1.04037 7.12052 -97.9406 -49.5835 66.8538 -22.4341 18.0541 -1.65244 1.2598 14.0021 -29.6781 12.6989 1.26623 5.85937 8.06033 3.60627 3.74835 -7.14916 2.79213 3.80677 
-55.3479 97.4123 31.0092 -126.084 -86.3465 -126.284 -169.496 2.96761 93.4311 -9.69683 3.53455 -3.14378 61.4421 1.16498 3.04846 28.6478 0.108594 -2.10976 172.313 2.5044 87.917 -12.3745 -7.69568 -0.311797 65.0497 -2.75472 -1.50341 28.86 0.183365 -2.81339 0.115919 7.26246 -90.0886 12.3491 0.188337 -0.198196 0.67815 0.179441 -0.206296 -21.8571 0.239207 -0.132428 -1.84441 0.239197 -0.132434 92.8161 -46.8043 -97.0936 30.237 -8.38512 1.0018 -4.10753 -25.0665 -39.2436 -7.06464 -1.03859 6.84852 -98.2187 -49.912 66.5606 -22.0436 18.0198 -1.67379 1.43495 14.1787 -29.8378 12.3163 1.20918 5.68858 8.24069 3.67919 4.17479 -7.38125 2.77753 3.51817 
-55.3084 97.4118 31.0207 -128.454 -86.5068 -128.572 -169.465 2.96625 93.4631 -9.73175 3.46162 -3.13501 61.7791 1.46641 2.97429 28.1673 -0.250108 -2.17895 172.308 2.45776 87.9639 -12.4112 -7.54026 -0.274599 64.9741 -2.73542 -1.49374 29.038 0.187369 -2.8098 0.0932307 7.27881 -90.0964 12.3163 0.139549 -0.208264 0.645343 0.130251 -0.214214 -21.8898 0.194767 -0.156694 -1.87715 0.194766 -0.156702 92.6802 -46.7951 -97.3131 30.1945 -8.36815 0.916904 -4.00619 -25.2734 -39.1848 -7.28011 -1.06533 6.96005 -98.2893 -49.8604 66.44 -22.1022 17.9987 -1.71077 1.53441 14.3137 -29.8601 12.4789 1.21795 5.64444 8.0789 3.6219 4.01097 -7.24899 2.75669 3.75603 
